<?xml version="1.0" standalone="no"?>
<!DOCTYPE svg PUBLIC "-//W3C//DTD SVG 20010904//EN"
 "http://www.w3.org/TR/2001/REC-SVG-20010904/DTD/svg10.dtd">
<svg version="1.0" xmlns="http://www.w3.org/2000/svg"
 width="128.000000pt" height="128.000000pt" viewBox="0 0 128.000000 128.000000"
 preserveAspectRatio="xMidYMid meet">

<g transform="translate(0.000000,128.000000) scale(0.100000,-0.100000)"
fill="#000000" stroke="none">
<path d="M133 1148 c-73 -73 -133 -137 -133 -142 0 -6 89 -100 197 -208 l198
-198 -112 -112 -112 -113 -51 -137 c-53 -147 -57 -163 -38 -171 7 -2 78 20
158 50 l145 54 110 110 110 109 195 -195 c107 -107 200 -195 206 -195 12 0
267 254 273 272 2 5 -85 99 -193 207 l-196 196 146 145 c148 148 170 176 174
220 5 61 -1 82 -38 121 -40 43 -92 59 -149 44 -17 -4 -87 -65 -186 -163 l-157
-156 -198 197 c-109 108 -202 197 -207 197 -4 0 -68 -59 -142 -132z m175 39
l22 -23 -55 -54 c-30 -30 -55 -62 -55 -72 0 -36 24 -28 79 26 31 31 61 56 67
56 5 0 25 -16 44 -35 l34 -35 -43 -44 c-67 -69 -28 -96 41 -29 l38 37 35 -34
35 -34 -61 -62 c-59 -59 -68 -84 -31 -84 9 0 42 25 72 55 l56 55 29 -30 29
-31 -107 -107 -107 -107 -185 185 -185 185 102 102 c57 57 108 103 114 103 6
0 20 -10 32 -23z m821 -54 c42 -39 45 -95 9 -138 l-23 -26 -70 71 -70 71 28
25 c39 33 88 32 126 -3z m-116 -131 l68 -68 -26 -24 -26 -24 -69 69 -70 69 22
23 c12 13 24 23 28 23 3 0 36 -31 73 -68z m-90 -90 l67 -67 -308 -308 -307
-307 -70 70 -70 70 305 305 c168 168 307 305 310 305 3 0 36 -30 73 -68z m-67
-391 c-40 -40 -57 -65 -53 -75 10 -26 25 -19 88 41 l60 57 37 -37 36 -37 -43
-44 c-67 -69 -28 -96 41 -29 l38 37 37 -37 38 -37 -59 -59 c-40 -40 -57 -65
-53 -75 11 -27 29 -18 89 41 l58 57 25 -24 26 -24 -108 -108 -108 -108 -182
182 -183 183 107 107 108 108 30 -30 29 -30 -58 -59z m-587 -255 c29 -30 51
-58 47 -64 -3 -5 -26 -15 -52 -22 -44 -13 -47 -12 -71 12 l-25 26 17 51 c9 28
20 51 24 51 4 0 31 -24 60 -54z m-104 -116 c3 -5 -1 -10 -9 -10 -9 0 -16 5
-16 10 0 6 4 10 9 10 6 0 13 -4 16 -10z"/>
<path d="M626 661 c-91 -91 -127 -134 -123 -145 4 -9 12 -16 19 -16 7 0 71 58
142 129 91 91 127 134 123 145 -4 9 -12 16 -19 16 -7 0 -71 -58 -142 -129z"/>
<path d="M441 471 c-19 -12 -6 -43 16 -39 10 2 18 12 18 22 0 22 -14 29 -34
17z"/>
</g>
</svg>
