<?xml version="1.0" standalone="no"?>
<!DOCTYPE svg PUBLIC "-//W3C//DTD SVG 20010904//EN"
 "http://www.w3.org/TR/2001/REC-SVG-20010904/DTD/svg10.dtd">
<svg version="1.0" xmlns="http://www.w3.org/2000/svg"
 width="128.000000pt" height="128.000000pt" viewBox="0 0 128.000000 128.000000"
 preserveAspectRatio="xMidYMid meet">

<g transform="translate(0.000000,128.000000) scale(0.100000,-0.100000)"
fill="#000000" stroke="none">
<path d="M525 1188 c-90 -16 -207 -81 -279 -154 -270 -270 -195 -729 147 -893
120 -58 257 -79 276 -43 15 28 -5 52 -42 52 -55 0 -158 29 -219 62 -176 94
-282 307 -250 501 35 210 199 374 410 409 193 32 406 -74 500 -250 33 -61 62
-164 62 -219 0 -37 25 -57 53 -42 35 20 13 157 -44 276 -108 227 -359 349
-614 301z"/>
<path d="M616 1044 c-14 -13 -16 -47 -16 -215 l0 -199 -102 0 c-57 0 -109 -4
-116 -9 -8 -4 -12 -19 -10 -32 3 -24 4 -24 143 -27 123 -2 141 0 152 15 10 12
13 75 13 234 0 184 -2 220 -16 233 -8 9 -19 16 -24 16 -5 0 -16 -7 -24 -16z"/>
<path d="M865 621 c-154 -38 -245 -194 -200 -346 22 -77 97 -154 174 -180 213
-70 416 133 346 346 -25 75 -103 152 -175 173 -57 17 -96 19 -145 7z m193
-163 c7 -7 12 -19 12 -27 0 -23 -149 -211 -167 -211 -8 0 -44 21 -80 47 -53
39 -63 52 -61 73 4 36 33 37 83 1 24 -17 46 -31 49 -31 3 0 33 36 66 80 61 80
76 90 98 68z"/>
</g>
</svg>
