<?xml version="1.0" standalone="no"?>
<!DOCTYPE svg PUBLIC "-//W3C//DTD SVG 20010904//EN"
 "http://www.w3.org/TR/2001/REC-SVG-20010904/DTD/svg10.dtd">
<svg version="1.0" xmlns="http://www.w3.org/2000/svg"
 width="128.000000pt" height="128.000000pt" viewBox="0 0 128.000000 128.000000"
 preserveAspectRatio="xMidYMid meet">

<g transform="translate(0.000000,128.000000) scale(0.100000,-0.100000)"
fill="#000000" stroke="none">
<path d="M370 1092 c-30 -10 -88 -36 -128 -57 -69 -36 -75 -42 -106 -104 -62
-124 -103 -277 -127 -474 -12 -97 -12 -97 12 -123 78 -83 249 -164 348 -164
45 0 47 1 98 68 l51 67 123 -1 122 -1 51 -66 c50 -66 52 -67 97 -67 26 0 76 9
112 20 67 21 194 98 236 143 22 24 23 32 17 89 -21 190 -64 365 -123 491 -33
70 -42 81 -92 112 -73 43 -202 87 -249 83 -34 -3 -40 -8 -70 -65 l-33 -63 -69
0 -69 0 -33 63 c-32 59 -35 62 -73 64 -22 1 -65 -6 -95 -15z m105 -92 c15 -29
15 -30 -12 -35 -74 -16 -194 -57 -208 -71 -19 -19 -16 -43 6 -57 12 -8 31 -5
70 11 172 70 446 70 618 0 39 -16 58 -19 70 -11 22 14 25 38 6 57 -14 14 -134
55 -208 71 -27 5 -27 6 -11 36 15 29 18 31 57 25 23 -4 76 -23 117 -44 73 -36
76 -39 109 -106 39 -81 87 -262 104 -395 l11 -94 -37 -32 c-50 -44 -141 -90
-205 -105 -50 -11 -53 -11 -72 11 -34 40 -42 59 -28 63 7 3 38 12 68 21 69 22
167 73 174 91 7 19 -2 41 -20 48 -8 3 -41 -7 -72 -23 -123 -62 -191 -76 -372
-76 -181 0 -249 14 -372 76 -31 16 -64 26 -72 23 -18 -7 -27 -29 -20 -48 7
-18 105 -69 174 -91 30 -9 61 -18 68 -21 14 -4 6 -23 -28 -63 l-20 -24 -65 18
c-65 17 -160 68 -204 108 -21 20 -23 27 -17 92 16 177 93 430 146 484 33 33
161 90 202 91 21 0 31 -8 43 -30z"/>
<path d="M398 754 c-36 -24 -68 -84 -68 -129 0 -122 128 -190 215 -114 65 58
68 151 6 221 -34 38 -110 49 -153 22z m102 -76 c37 -40 14 -128 -34 -128 -31
0 -60 37 -60 75 0 27 6 43 23 56 30 25 46 24 71 -3z"/>
<path d="M755 752 c-40 -25 -51 -39 -65 -87 -17 -57 0 -114 45 -154 63 -55
156 -37 195 39 26 50 25 103 -1 150 -38 67 -112 89 -174 52z m96 -71 c17 -13
23 -29 23 -56 0 -27 -6 -43 -23 -56 -30 -24 -46 -24 -71 1 -38 38 -14 130 34
130 8 0 24 -8 37 -19z"/>
</g>
</svg>
