<?xml version="1.0" standalone="no"?>
<!DOCTYPE svg PUBLIC "-//W3C//DTD SVG 20010904//EN"
 "http://www.w3.org/TR/2001/REC-SVG-20010904/DTD/svg10.dtd">
<svg version="1.0" xmlns="http://www.w3.org/2000/svg"
 width="128.000000pt" height="128.000000pt" viewBox="0 0 128.000000 128.000000"
 preserveAspectRatio="xMidYMid meet">

<g transform="translate(0.000000,128.000000) scale(0.100000,-0.100000)"
fill="#000000" stroke="none">
<path d="M539 1227 c-67 -19 -131 -60 -183 -118 -25 -28 -46 -55 -46 -60 0 -5
-14 -9 -31 -9 -62 0 -113 -23 -164 -75 -102 -101 -102 -229 0 -330 56 -57 102
-75 189 -75 l56 0 0 -40 c0 -39 26 -80 50 -80 6 0 10 -18 10 -40 l0 -40 -106
0 c-105 0 -106 0 -134 30 -52 56 -140 24 -140 -50 0 -74 88 -106 140 -50 27
29 28 29 151 32 l124 3 3 58 c3 49 6 57 22 57 18 0 20 -7 20 -80 l0 -79 -87
-3 -88 -3 -3 -34 c-2 -22 -14 -44 -33 -62 -55 -51 -23 -139 51 -139 74 0 106
88 50 140 -52 48 -42 59 58 62 l87 3 3 98 3 97 39 0 40 0 0 -96 c0 -94 -1 -97
-30 -124 -56 -52 -24 -140 50 -140 74 0 106 88 50 140 -29 27 -30 30 -30 124
l0 96 40 0 39 0 3 -97 3 -98 88 -3 c99 -3 109 -14 57 -62 -56 -52 -24 -140 50
-140 74 0 106 88 51 139 -19 18 -31 40 -33 62 l-3 34 -87 3 -88 3 0 79 c0 73
2 80 20 80 16 0 19 -8 22 -57 l3 -58 124 -3 c123 -3 124 -3 151 -32 52 -56
140 -24 140 50 0 74 -88 106 -140 50 -28 -30 -29 -30 -134 -30 l-106 0 0 40
c0 22 5 40 10 40 24 0 50 41 50 79 l0 39 95 4 c85 3 99 7 136 33 58 41 84 95
84 170 0 104 -68 179 -174 192 l-51 6 -30 62 c-36 75 -109 146 -186 182 -67
30 -185 40 -255 20z m242 -59 c70 -32 136 -99 166 -168 13 -30 27 -61 31 -68
5 -9 28 -14 64 -15 61 -2 94 -20 132 -71 29 -39 29 -133 0 -172 -43 -58 -68
-69 -168 -72 l-92 -4 3 161 c4 219 29 201 -277 201 -306 0 -281 18 -277 -201
l3 -161 -78 4 c-90 5 -140 32 -179 95 -36 57 -34 154 3 210 37 56 86 84 159
90 52 5 62 9 74 33 18 35 92 108 129 127 96 50 213 54 307 11z m94 -308 l0
-55 -235 0 -235 0 -3 44 c-6 76 -19 72 240 69 l233 -3 0 -55z m0 -160 l0 -55
-235 0 -235 0 -3 44 c-6 76 -19 72 240 69 l233 -3 0 -55z m0 -160 l0 -55 -235
0 -235 0 -3 44 c-6 76 -19 72 240 69 l233 -3 0 -55z m-725 -175 c15 -18 10
-45 -12 -59 -35 -22 -74 27 -48 59 16 19 44 19 60 0z m1040 0 c26 -32 -13 -81
-47 -59 -23 14 -28 41 -13 59 16 19 44 19 60 0z m-520 -180 c15 -18 10 -45
-12 -59 -35 -22 -74 27 -48 59 16 19 44 19 60 0z m-300 -40 c15 -18 10 -45
-12 -59 -35 -22 -74 27 -48 59 16 19 44 19 60 0z m600 0 c26 -32 -13 -81 -47
-59 -10 6 -19 19 -21 28 -8 38 43 61 68 31z"/>
<path d="M440 860 c0 -19 7 -20 120 -20 113 0 120 1 120 20 0 19 -7 20 -120
20 -113 0 -120 -1 -120 -20z"/>
<path d="M720 860 c0 -13 7 -20 20 -20 13 0 20 7 20 20 0 13 -7 20 -20 20 -13
0 -20 -7 -20 -20z"/>
<path d="M800 860 c0 -13 7 -20 20 -20 13 0 20 7 20 20 0 13 -7 20 -20 20 -13
0 -20 -7 -20 -20z"/>
<path d="M440 700 c0 -19 7 -20 120 -20 113 0 120 1 120 20 0 19 -7 20 -120
20 -113 0 -120 -1 -120 -20z"/>
<path d="M720 700 c0 -13 7 -20 20 -20 13 0 20 7 20 20 0 13 -7 20 -20 20 -13
0 -20 -7 -20 -20z"/>
<path d="M800 700 c0 -13 7 -20 20 -20 13 0 20 7 20 20 0 13 -7 20 -20 20 -13
0 -20 -7 -20 -20z"/>
<path d="M440 540 c0 -19 7 -20 120 -20 113 0 120 1 120 20 0 19 -7 20 -120
20 -113 0 -120 -1 -120 -20z"/>
<path d="M720 540 c0 -13 7 -20 20 -20 13 0 20 7 20 20 0 13 -7 20 -20 20 -13
0 -20 -7 -20 -20z"/>
<path d="M800 540 c0 -13 7 -20 20 -20 13 0 20 7 20 20 0 13 -7 20 -20 20 -13
0 -20 -7 -20 -20z"/>
</g>
</svg>
