<?xml version="1.0" standalone="no"?>
<!DOCTYPE svg PUBLIC "-//W3C//DTD SVG 20010904//EN"
 "http://www.w3.org/TR/2001/REC-SVG-20010904/DTD/svg10.dtd">
<svg version="1.0" xmlns="http://www.w3.org/2000/svg"
 width="128.000000pt" height="128.000000pt" viewBox="0 0 128.000000 128.000000"
 preserveAspectRatio="xMidYMid meet">

<g transform="translate(0.000000,128.000000) scale(0.100000,-0.100000)"
fill="#000000" stroke="none">
<path d="M73 1173 c-12 -2 -34 -18 -48 -34 -25 -30 -25 -33 -25 -201 0 -156 1
-169 17 -166 15 3 19 16 21 76 l3 72 599 0 600 0 0 -322 c0 -185 -4 -329 -10
-338 -7 -11 -36 -16 -117 -20 -87 -4 -108 -8 -108 -20 0 -12 20 -16 107 -18
100 -3 108 -1 135 22 l28 24 3 430 3 430 -26 30 c-19 22 -38 33 -69 37 -51 8
-86 0 -86 -21 0 -10 13 -14 48 -14 27 0 57 -7 70 -16 19 -13 22 -24 22 -90 l0
-74 -600 0 -600 0 0 74 c0 66 3 77 22 90 20 14 84 16 505 16 406 0 483 2 483
14 0 8 -7 17 -16 20 -17 7 -926 6 -961 -1z"/>
<path d="M134 1066 c-10 -26 4 -48 28 -44 17 2 23 10 23 28 0 18 -6 26 -23 28
-13 2 -25 -3 -28 -12z"/>
<path d="M237 1066 c-11 -28 4 -47 32 -44 20 2 26 8 26 28 0 20 -6 26 -26 28
-17 2 -29 -3 -32 -12z"/>
<path d="M344 1065 c-10 -25 4 -45 30 -45 25 0 39 20 30 45 -4 8 -17 15 -30
15 -14 0 -27 -7 -30 -15z"/>
<path d="M155 718 c-9 -22 58 -203 74 -203 9 0 25 28 40 69 l25 69 20 -59 c23
-65 33 -84 45 -84 14 0 83 202 72 213 -15 15 -29 0 -46 -56 -10 -28 -21 -56
-25 -60 -4 -5 -18 21 -30 57 -12 38 -27 66 -35 66 -12 0 -55 -95 -55 -120 0
-6 -4 -10 -8 -10 -5 0 -17 28 -28 62 -19 61 -39 83 -49 56z"/>
<path d="M500 713 c0 -27 49 -167 65 -189 18 -24 27 -12 52 64 9 28 20 52 23
52 3 0 14 -24 23 -52 33 -104 43 -102 86 18 31 86 38 124 22 124 -14 0 -27
-22 -46 -78 -9 -29 -20 -50 -23 -47 -4 4 -16 32 -27 63 -12 33 -26 57 -34 57
-9 0 -25 -28 -40 -69 l-25 -69 -24 71 c-14 44 -29 72 -38 72 -8 0 -14 -8 -14
-17z"/>
<path d="M844 716 c-8 -22 59 -201 75 -201 9 0 23 25 35 62 12 34 24 64 27 67
3 3 15 -26 28 -64 31 -98 42 -94 85 35 28 86 32 115 15 115 -9 0 -26 -35 -58
-115 -6 -15 -12 -7 -32 45 -14 36 -31 65 -39 65 -7 0 -21 -24 -32 -55 -10 -30
-22 -58 -26 -62 -5 -5 -19 21 -31 57 -23 64 -36 79 -47 51z"/>
<path d="M4 707 c-3 -8 -4 -114 -2 -237 l3 -222 28 -24 c28 -24 32 -24 217
-24 l189 0 20 -45 c24 -54 43 -57 88 -13 l32 31 41 -37 c33 -30 44 -35 59 -26
28 14 63 62 57 76 -4 10 20 14 102 16 87 2 107 6 107 18 0 12 -22 15 -130 18
-71 1 -134 7 -139 12 -7 7 1 22 22 43 59 61 54 67 -150 142 -239 89 -233 94
-139 -148 6 -16 11 -33 11 -38 0 -12 -340 -12 -360 1 -12 8 -16 49 -20 236 -4
169 -8 228 -17 232 -7 2 -15 -3 -19 -11z m536 -308 c77 -29 140 -55 140 -58 0
-4 -13 -20 -30 -36 -16 -16 -30 -34 -30 -40 0 -6 16 -26 35 -45 19 -19 35 -40
35 -46 0 -28 -24 -24 -59 10 -20 20 -43 36 -51 36 -8 0 -29 -14 -47 -32 -18
-17 -34 -30 -36 -27 -3 3 -47 119 -105 277 -2 6 -1 12 2 12 3 0 69 -23 146
-51z"/>
</g>
</svg>
